<svg id="Layer_1" data-name="Layer 1" xmlns="http://www.w3.org/2000/svg" viewBox="0 0 58.12 150"><defs><style>.cls-1{fill:#dd3a46;}.cls-2{fill:#ff1d25;}</style></defs><title>dial_bar</title><path class="cls-1" d="M29.06,74.23c2.11,14.53,6.72,36.17,17.56,57.25A131.86,131.86,0,0,0,58.12,150H0a131.86,131.86,0,0,0,11.5-18.53C22.34,110.4,26.95,88.76,29.06,74.23Z"/><path class="cls-2" d="M29.06,150H0a131.86,131.86,0,0,0,11.5-18.53C22.34,110.4,26.95,88.76,29.06,74.23"/><path class="cls-1" d="M29.06,75.77C26.95,61.24,22.34,39.6,11.5,18.53A131.86,131.86,0,0,0,0,0H58.12a131.86,131.86,0,0,0-11.5,18.53C35.78,39.6,31.17,61.24,29.06,75.77Z"/><path class="cls-2" d="M29.06,0H58.12a131.86,131.86,0,0,0-11.5,18.53C35.78,39.6,31.17,61.24,29.06,75.77"/></svg>