<svg id="Layer_1" data-name="Layer 1" xmlns="http://www.w3.org/2000/svg" xmlns:xlink="http://www.w3.org/1999/xlink" viewBox="0 0 1920 150"><defs><style>.cls-1{fill:url(#linear-gradient);}.cls-2{fill:#ff9c30;}.cls-3{fill:#82cc4e;}</style><linearGradient id="linear-gradient" x1="662.06" y1="75" x2="1920" y2="75" gradientUnits="userSpaceOnUse"><stop offset="0.25"/><stop offset="1" stop-color="#333"/></linearGradient></defs><title>gauge_bar</title><rect class="cls-1" x="662.06" width="1257.94" height="150"/><path class="cls-2" d="M1883.15,135H1531.62a24,24,0,0,1-24-24V38.46A23.46,23.46,0,0,1,1531.12,15h352a24,24,0,0,1,24,24V111A24,24,0,0,1,1883.15,135Z"/><path class="cls-3" d="M1473.76,135H1122.24a24,24,0,0,1-24-24V38.46A23.46,23.46,0,0,1,1121.74,15h352a24,24,0,0,1,24,24V111A24,24,0,0,1,1473.76,135Z"/><path class="cls-2" d="M1064.38,135H712.85a24,24,0,0,1-24-24V38.46A23.46,23.46,0,0,1,712.36,15h352a24,24,0,0,1,24,24V111A24,24,0,0,1,1064.38,135Z"/></svg>